<?xml version="1.0" encoding="UTF-8"?>
<svg id="Layer_1" xmlns="http://www.w3.org/2000/svg" version="1.1" viewBox="0 0 1024 1024">
  <!-- Generator: Adobe Illustrator 29.4.0, SVG Export Plug-In . SVG Version: 2.1.0 Build 152)  -->
  <defs>
    <style>
      .st0 {
        fill: #35571a;
      }
    </style>
  </defs>
  <path class="st0" d="M428.1,316.58c.38-2.75.16-2.1-1.64-2.91-7.31-3.27-16.24-4.23-22.4-11.32-9.29-10.7,13.73-13.9,21.79-12.71,6.12.91,17.63,8.12,21.72,2.3-1.76-.69-10.24-1.8-9.07-4.54.4-.93,6.55-6.77,7.86-7.71,4.14-2.97,9.41-3.89,12.89-7.21-9.54-2.26-19.03,8.19-25.86,9.81-6.31,1.5-14.19.02-20.85,1.85-1.21-5.47,7.33-6.95,9.07-11.04.68-1.61-.27-2.41-1.91-1.91-2.14.65-13.53,7.97-14.94,6.46-.79-15.62,16.29-29.23,30.63-30.99,8.19-1.01,16.02,1.22,23.07,1.02,15-.41,31.04-11.81,46.19-5.07.76-6.15-5.72-8.29-8.39-11.71-2.81-3.61-6.4-14.04-3.92-18.12.43-.71,11.26-10.18,12.4-10.94,4.7-3.13,9.95-3.99,15.47-4.62-1.57,4.98-4.96,8.73-2.58,14.26l23.32-9.73c-2.64-3.89-7.25-2.46-10.66-3.59-2.13-.7-3.58-2.87-5.83-3.35-2.79-.59-16.78,3.29-8.44-2.45,2.41-1.65,15.76-8.14,15.85-10.08.25-5.86-16.2,5.21-16.83,4.54.45-4.76-3.14-2.76-2.53-8.24,1.87-16.81,17.58-18.62,31.06-20.32l-17.81-9.41-1.63-4.79c12.79-6.65,38.21-7.63,51.67-3.09,6.19,2.09,9.68,10.62,18.37,1.75-4.35-2.07-11.14-3.02-14.27-6.49l10.37-2.62c.72-.78-6.54-8.93-3.21-16.83,2.49-5.9,10.78-3.43,15.18-4.28,6.91-1.33,13.06-4.98,20.51-2.92,2.83.78,6.28,4.56,8.39,4.57,2.5,0,7.47-5.71,12.02-6.25,12.33-1.46,29.17,2.26,39.65,9.09,3.49,2.27,12.43,12.39,13.4,12.55,1.65.28,3.37-1.75,5.21-1.95,5.04-.57,30.31-3.39,32.32-.54,3.37,4.76-6.3,18.42-9.82,22.14,4.07.62,8.82-4.05,12.39-3.82,1.13.07,6.9,4.05,7.09,4.75,3.05,11.01-7.67,18.04-14.24,24.48,1.52,6.63,11.87,4.7,13.93-.38.75-1.85,3.78-13.27,4.06-15.4,1.45-10.92-4.15-21.67,11.25-23.78,13.72-1.88,19.32.87,12.27,14.87-1.49,2.95-9.15,11.88-11.83,14.13-1.86,1.57-4.94,1.19-5.09,3.32,4.27.39,9.16-.71,13.3.33,3.94.99,11.37,8.86,15.87,8.79,1.15-.02-.02-4.86,4.4-5.84,10.59,1.61,26.18-.97,35.64,4.72,18.01,10.83-20.38,19.02-22.22,20.84-4.83,4.79,6.69,11.18,4.95,18.25-.1.41-5.67,5.77-6.03,6-1.66,1.08-5.27,1.21-5.55,1.56-.41.51-.31,8.25-1.43,10.24,12.75-3.79,13.83-19.49,21.33-27.31,4.02-4.19,22.86-12.99,28.61-13.01,3.59,0,17.79,3.82,19.51,6.57,2.89,4.62-9.45,17.94-13.2,20.6-3.12,2.22-16.08,6.15-18.56,3.93-.87-.78,1.46-4.48-1.97-3.71-3.07.69-9.13,5.64-12.78,6.7l-8.68,6.22c7.68-.82,16.67,2.74,24,2.72,9.65-.02,18.89-3.93,29.85-2.71,7.85.87,13.81,6.2,21.4,6.5.67,2.56-1.07,2.51-2.18,3.64-4.67,4.77-11.3,7.25-15.98,11.91,8.67-.28,20.67,2.67,23.35,11.68-2.66-.17-5.24.02-7.85.58-1.99.43-7.15,1.06-7.71,3.3,18.15.96,33.2,12.17,35.02,31.15-11.41,1.59-14.49-5.28-21.44-10.33-3.89-2.83-12.36-9.3-16.27-10.98-2.22-.95-9.92-1.67-10.29-2.05-2.8-2.85,9.1-5.57,9.07-7.76-6.15-1.51-11.33-5.06-17.69-6.34-1.85-.37-2.21-.3-1.7,1.7s3.52,13.05,4.09,13.46c.91.65,11.1,2.62,14.5,4.3,11.65,5.71,8.97,7.69,13.18,16.66,3.92,8.36,17.48,6.9,25.51,10.82,28,13.64-13.72,22.43-26.22,20.39,4.88,5.25,12.49,7.09,18.08,11.1,10.24,7.35,18.23,19.91,16.94,33.01l-23.35-5.18c8.21,6.36,12.93,15.33,11.67,25.94-9.32,3.52-12.34-17.92-14.37-19.37-1.05-.75-6.03,1.37-9.86.24-9.59-2.85-13.14-13.63-22.46-15.9-1,.97,8.99,17.06,10.38,18.8,5.88,7.42,29.79,22.26,13.67,30.55-9.74,5.01-19.68.57-27.94-5.24-.63,5.72,5.36,10.89,1.37,16.31-6.09,4.34-31.81-12.47-28.4-23.2.79-2.49,7.73-4.42,4.97-7.37-.4-.42-8.79-1.35-11.4-2.24-8.96-3.06-17.62-8.91-27.54-8.15-1.09-4.9,1.24-7.51,2.6-11.68-12.62-.81-24.89,2.95-36.31,7.79l26.01,3.16c23.79,4.45,44.74,16.74,41.48,44.21-2.17,18.24-21.32-5.8-24.68-3.26,3.47,5.99,2.58,12.82,2.6,19.46-8.19,1.49-18.76-4.39-24.07-10.32-3.17-3.54-5.98-13.83-8.35-15.01-5.77-2.87-19.76,1.54-25.42,4.44-.99.51-4.13.48-1.85,2.7.38.37,8.33,1.2,10.37,1.97,10.75,4.06,21.86,13.12,14.9,25.3-12.52-3.61-34.69-8.84-30.47-25.95-37.15,13.01-70.81,32.05-74,75.85-3.6,49.41,19.77,86.2,66.98,100.5s93.84,20.04,139.38,34.49c18.95,6.01,39.73,13.06,58.71,20.44,4.89,1.9,11.54,3.73,15.25,7.44-17.05-2.66-33.71-8.32-50.59-12.33-45.04-10.71-91.32-20.76-137.12-27.66-165.97-25.01-337.57-12.5-503.06,10.33-42.95,5.93-88.07,13.19-128.95,21.8-13.37,2.82-40.3,11.21-51.54,11.82-1.41.08-3.63.69-3.27-1.34,25.08-9.41,50.51-18.15,76.37-25.27,22.41-6.16,49.35-12.32,73.83-17.22,67.55-13.54,135.3-19.87,204.01-25.01,1.14-1.26-7.08-10.05-5.15-13.46,5.24-21.38,17.47-43.69,20.23-65.26.23-1.79-1.02-3.93-.71-6.06,1.33-9,5.04-19.71,5.14-28.73.02-2.1-1.29-3.42-2.63-1.97-.73.79-5.24,18.05-5.87,20.75-.82,3.53-2.57,19.96-3.37,20.63-.88.73-4.73-.13-6.35.15-1.29-19.74.42-40.3,8.1-58.74,2.95-7.08,7.82-13,10.07-20.41-20.68.59-29.91-13.9-15.54-30.47,9.81-11.32,17.85-9.05,27.25,1.24,3.56,3.9,7.52,8.92,7.81,14.36.11,1.96-2.92,11.08.57,9.66,12.8-5.18,13.21-49.75,26.17-54.29,4.17-1.46,4.29,5.62,5.61,9.41l-19.46,71.57,2.72,42.68c-8.59,1.39-3.92,11.07-3.93,16.88-.01,5.88.18,15.11-.49,20.67-1.31,10.85-7.28,25.14-7.45,36.48-.07,4.42.71,9.82,4.91,12.04,3.92,2.08,18.86.64,24.37.27,55.94-3.78,106.73-21.49,120.95-81.47,7.01-29.59,6.63-89.24-28.2-102.09-24.82-9.16-23.86,8.06-40.19,15.53-8.17,3.74-15.83,3.56-24.65,3.25-1.93-20.04,21.93-41.66,41.18-35.34,4.23,1.39,8.2,7.43,13.32,4.85-16.48-15.05-26.91-15.67-45.79-4.28-4.26,2.57-18.95,16.54-22.87,13.9-2.55-1.72-1.46-15.1,1.19-18.04-1.4-1.07-13.52,6.02-12.75-1.71.04-.38,2.43-6.79,2.68-7.07,1.08-1.23,19.78-7.66,22.5-7.99,7.67-.94,12.76,2.01,19.98,3.15-1.62-4.15-8.39-6.02-12.61-6.84-18.52-3.58-29.89,1.58-44.41,12.09-2.61,1.89-3.8,5.46-7.98,7.54-12.69,6.33-17.45-12.89-12.84-16.72.95-.79,15.11-5.04,17.67-5.69,9.59-2.41,20.5-4.08,30.35-4.03.36-2.59.25-2.13-1.6-2.92-6.54-2.79-17.82,1.52-25.15,2.77-5.81.99-17.33,4.11-21.91,4.16-6.73.07-6.59-.74-7.12-5.77-.75-7.13-9.75,9.41-10.39,10.2-6.37,7.93-11.7,9.68-21.58,10.86-9.94,1.19-.97-8.68.82-12.8-1.79-1.4-17.86,8.28-22.05,6.47-.22-16.02,7.44-25.14,23.34-27.26-1.94-5.39-13.78-.71-14.26-1.29-1.17-11.05,9.34-15.29,14.26-23.34-16.1,7.3-28.62,19.95-48,16.85-.45-5.13,3.17-10.88,6.48-14.55,1.32-1.46,12.78-10.1,13.63-10.1h27.9ZM655.17,141.41c2.84,2.89,20.69-6.33,0-5.17.21,1.26-.31,4.85,0,5.17ZM646.1,153.07c1.38,1.63,14.64,6.49,15.55,1.95,1.11-5.52-11.63-4.78-14.91-4.53-1.12-.15-.78,2.41-.64,2.58ZM713.55,168.66c4.91-5.12-17.54-17.14-22.04-16.85l9.16,9.64c2.93.18,10.78,9.41,12.89,7.21ZM605.86,159.6c-6.22-3.45-17.07-2.51-19.45,5.16,7.59-.94,17.04,5.51,19.45-5.16ZM572.13,171.27c-8.39-1.04-18.52-7.12-25.94-.65,2.77,1.29,6.24.29,9.41.95,4.95,1.04,15.42,7.86,16.53-.3ZM705.77,202.39c-4.78-10.58-14.04-15.95-23.34-22.04-.6,4.6,2.67,8.74,5.77,11.73,2.3,2.22,15.07,12.14,17.57,10.31ZM607.15,185.55l-8.09-1.06c-2.57,3.53-24.29,10.71-24.32,12.07-.09,5.36,34.86.95,32.4-11.01ZM672.03,204.99c5.14-5.44-17.02-12.9-20.74-11.66l12.09,8c1.65.49,7.69,4.68,8.65,3.66ZM763.99,209.04c-2.21-3.47-25.91-4.22-30.96-2.74l9.42,2.89,15.99,9.99c1.83.39,7.06-7.78,5.55-10.14ZM792.24,210.71c-3.48-1.78-5.83-2.3-9.92-1.82.19,1.46-.76,2.91.78,4,.47.33,9.73,4.89,10.28,5.06,3.89,1.21,1.87-5.7-1.14-7.24ZM626.16,214.56c-3.14-1.97-8.03-3.45-9.92.8,5.67,1.4,9.13,7.61,15.57,6.49-.7-1.9-4.18-6.37-5.65-7.29ZM686.31,228.34c-3.78-18.95-16.09-14.96-31.13-14.26-.71,3.09.52,2.1,1.69,2.89,8.55,5.83,18.68,12.41,29.44,11.37ZM740.8,233.53c1.91-15.88-15.75-20.66-28.54-19.44,2.34,2.7,26.86,21.33,28.54,19.44ZM832.93,216.69c-1.82-.93-3.46.82-2.58,1.27,1.82.93,3.46-.82,2.58-1.27ZM568.23,233.53c.34-4.52-3.05-15.27-9.12-11.07-4.8,3.31,7.02,13.09,9.12,11.07ZM524.01,228.45c-5.42-.26-4.65,7.01-7.67,10.26,2.84-.32,11.8-.73,12.97-3.24,2.08-4.47-5.7-2.55-5.29-7.02ZM826.36,244.08c-2.26-3.25-12.38-4.71-15.75-5.73-2.37-.72-4.21-2.69-7.17-3.23-6.77-1.23-12.39,2.59-4.52,4.51,3.3.81,6.21.65,9.75,1.96,4.48,1.65,10.17,6.05,14.76,7.34,2.48.7,3.27-4.37,2.93-4.85ZM604.56,254.29c4.65-6.72-19.56-12.49-24.64-9.06-1.76,1.87,9.71,10.22,11.93,10.85,2.45.7,11.99-.75,12.71-1.79ZM481.3,250.43c-.45-.48-7.2-1.78-7.78-1.31l1.29,3.87c-6.31-1.3-19.71,6.11-7.16,6.59,10.68.41,5.48-4.86,5.85-5.26s10.86-.65,7.79-3.89ZM794.9,254.72c-4.78-4.23-14.03-5.81-20.35-5.6l5.77,6.5c2.85,1.74,5.3,2.87,7.89,5.13.88.77,10.35,13.41,11.01,8.4.63-5.39-.1-10.69-4.32-14.43ZM552.67,272.47c-.68-13.97-6.24-19.49-20.13-20.74-3.45-.31-19.52-.91-14.05,5.26.92,1.03,12.5,11.13,13.73,11.89,6.17,3.82,13.43,3.97,20.45,3.59ZM581.2,271.16c1.41-1.29-10.43-14.45-12.29-15.6-1.36-.84-7.94-3.06-8.46-2.55-.57,2.44,1.38,3.08,2.58,4.54,2.04,2.46,15.11,16.4,18.16,13.61ZM760.27,254.31c-2.63-1.96-20.58,3.27-24.67,4.57-2.26.72-3.09.13-2.56,3.2,7.31-3.14,18.18-1.61,24.98-3.89,1.18-.4,1.61-2.69,2.26-3.87ZM838.12,273.76c4.15-3.89-20.37-20.77-25.95-18.15-1.1.82,8.99,9.84,9.55,10.67,1.61,2.4,1.96,6.88,2.92,7.61,3.15,2.39,9.59-1.1,13.48-.14ZM643.95,273.24c6.25,3.72,5.84-3.61,2.74-7.2s-7.02-2.62-10.98-1.34c2.52,1.64,6.28,7.38,8.24,8.54ZM505.56,276.77c-5.18-4.27-23.51-11.27-26.81-2.3l7.74,6.44c3.96,1.74,16.31,4.68,20.26,4.47,5.65-.3,1.02-6.79-1.19-8.61ZM694.1,273.78c-7.8-.75-14.53,7.45-16.86,14.25,3.24,3.03,14.9-11.99,16.86-14.25ZM665.54,276.37c-3.8-.65-2.1.92-2.75,3.02-2.77,8.95-3.46,17.59-1.13,26.81,1.94-.26,2.13-5.59,2.4-7.31,1.15-7.37,1.67-15.04,1.47-22.52ZM731.31,284.55c-2-2.41-10.72-7.17-9.85-1.2.14.99,10.97,15.59,11.84,16.07,3.95,2.15,6.4-.25,4.54-4.56-.25-.58-6-9.67-6.53-10.31ZM766.39,281.94c-1.98-1.61-12.15-3.58-11.28.24.11.49,5.32,6.98,5.7,7.24,2.15,1.48,5.16.84,5.8,1.44s-.14,3.33.17,3.64c.14.14,3.72.14,3.87.02.51-.43-2.31-10.99-4.26-12.58ZM802.7,297.5c-.46-.55-8.95-7.53-9.63-7.86-2.51-1.22-5.35-1.72-8.14-1.58,3.05,3.53,5.6,2.12,2.59,7.76,6.27-.37,9.98,5.93,16.23,7.79,1.64-1.24-.06-4.9-1.05-6.1ZM475.68,294.99c-8.54-4.87-23.88,6.35-21.62,8.61l5.17-1.29c1.11,1.25-5.05,7.42,4.63,9.02,7.04,1.17,14.27-3,21.32-2.54,1.49-1.33-7.74-12.79-9.51-13.8ZM694.1,295.8c5.57,2.45,8.38,6.9,13.99,10.03,2.42,1.35,15.03,7.73,15.85,3.59s-10.82-12.36-14.69-13.83c-4.11-1.56-12.13-4.46-15.15.22ZM569.54,294.53c-2.76.71-10.15-2.22-9.1,2.58l9.08,1.3.02-3.88ZM598.07,312.68c-1.95-6.62-5.82-18.29-14.27-14.26.55,7.53,7.45,12.45,14.27,14.26ZM624.04,339.94c10.73-10.84-3.49-29.41-12.35-37.6l12.35,37.6ZM864.07,323.06c.13-4.12-4.79-5.15-7.18-7.73-4.35-4.68-7.62-11.65-14.86-13.02.29,3.53-1.03,12.98,1.62,15.25,1.84,1.58,18.88,6.85,20.43,5.5ZM579.91,307.51c-9.36.39-26.78-2.62-34.69,2.24-4.48,2.74.46,7.33,5.38,6.84,4.18-.42,6.28-4.38,9.78-5.92l19.53-3.15ZM531.9,332.15c.84-.91-6-13.07-7.27-14.13-3.16-2.63-17.64-6.97-18.67-2.07-.89,4.28,24.54,17.71,25.94,16.19ZM830.26,316.63c-4.55-3.08-3.79,4.59-5.72,6.48-2.52,2.47-11.25.23-11.06,6.44,12.86.48,21.57,10.51,33.72,12.98,1.23-1.32-4.87-10.95-6.15-12.69-2.35-3.18-7.32-6.35-9.51-8.99-.84-1.01-.88-3.95-1.27-4.21ZM590.15,320.61c-.38-.47-10.15-2.81-11.86-2.52-2.4.42-9.8,4.26-10.05,6.95-.07.77,5.94,4.4,8.24,4.13,1.15-.14,13.22-3.09,13.67-3.64.39-.48.38-4.45,0-4.92ZM764.16,321.76c-3.36-5.83-11.28-3.48-16.86-3.87l10.31,4.63,6.55-.76ZM653.86,338.64c0-5.34,4.6-11.17,1.2-16.1-2.68-3.88-7.7.37-11.56-2.06,1.12,7.12,3.82,14.34,10.36,18.16ZM803.08,326.98c-4.86-4.55-15.58-6.04-22.04-5.2-.81,3.57,1.19,2.21,2.59,3.19,2.87,2,11.5,9.56,13.66,9.82,6.9.82,2.81-5.81,3.32-6.39.2-.22,3.86-.12,2.47-1.42ZM700.59,326.98c-3.72-3.68-17.07,1.57-20.73,4.55-2.99,2.44-.55,6.78,0,9.71,7.3.59,6.92-5.58,10.41-8.38,1.79-1.44,13.17-3.06,10.32-5.88ZM494.28,337.37c-10.88-1.34-20.91-9.16-31.75-10.45-2.99-.35-18.38-.33-20.6.46s-10.1,7.67-3.12,7.05,14.39-3.43,21.06-3.64c5.76-.18,10.61,1.6,16.25,1.37.51,4.42-1,1.75-2.44,2.02-24.54,4.63-3.72,16.71-.32,14.69.32-.19.8-2.73,2.02-3.77,4.42-3.81,13.29-4.01,18.91-3.86v-3.86ZM604.59,339.93c5.38,3.97,3.42-12.72-3.9-11.67.3,1.8,3.41,11.3,3.9,11.67ZM638.28,364.59c-.46-4.46,5.4-7.18,6.26-10,1.85-6.07-6.14-22.02-11.42-26.33.62,11.94-2.48,23.38,2.26,34.71.78,1.85.29,1.97,2.9,1.61ZM886.76,347.12c-4.38-5.56-11.97-7.72-18.78-5.86l20.13,15.54c3.99,1.66.19-7.73-1.35-9.68ZM779.73,352.91c1.12-.98-10.4-11.4-11.2-11.52-.36-.06-6.69,2.21-6.96,2.46-1.35,1.32,3.82,4.48,3.37,6.59l14.79,2.47ZM527.65,346.8c-5.08-4.38-21.15-2.79-28.17-4.26l15.42,7.26c3.78,2.08,11.86,9.05,15.05,9.61,4.98.88-.67-11.22-2.3-12.62ZM681.12,374.96c2.44.52,3.14-1.19,4.44-2.68,4.5-5.18,10.75-13.18,14.99-18.75,1.88-2.47,4.28-5,3.92-8.4-5.25,5.31-14.85,9.33-18.75,15.63-2.83,4.58-1.29,9.83-4.6,14.21ZM746.01,358.1c3.46.55,7.27-4.99,3.92-7.17-1.98-1.29-5.75-.15-8.18-.9-3.81-1.17-6.77-4.53-11.31-3.59l9.98,7.64,5.57-2.47.02,6.48ZM819.08,359.05c-.98-2.07-.43-3.63-2.26-6.24-1.49-2.11-8.01-6.39-10.52-6.36-1.9.02-7.62,8-8.39,9.72-1.7,3.79,9.18,2.3,10.42,2.52,4.13.73,8.19,2.33,12.26,3.32,3.03-2.47-1.34-2.59-1.51-2.97ZM535.8,350.32c-1.95,2.03,5.4,14.09,9.7,12.97,7.04-1.84-7.28-15.49-9.7-12.97ZM670.73,351.62c-1.4-1.54-6.13,4.21-7.02,5.29-6.04,7.32-16.91,27.65-17.61,36.89-.44,5.83-.47,13.1,6.53,7.83,3.03-2.28,14.4-14.8,15.82-17.92,1.88-4.14,4.59-29.55,2.28-32.09ZM606.51,356.81c-5.11-1.09-13.28.79-18.81,0,6.75,20.05,18.74,38.2,30.51,55.8,3.26.99,2-7.3,1.92-8.43-.64-8.97-3.47-36.15-7.96-42.64-1.08-1.56-3.98-4.37-5.65-4.73ZM585.1,385.35c1.58-1.71-10.87-26.9-12.34-27.24-3.23-.74-3.03,5.51-5.18,6.48l-1.93-2.58c1.94,6.51-8.58,4.08-12.98,2.59l3.45,4.98,28.97,15.78ZM784.92,360.71c-6.13-.98-14.43-2.66-18.16,3.87,5.21-.74,14.61.38,18.16-3.87ZM721,372.72c-4.59-4.25-20.54-1.25-21.71,6.14,6.13-1.69,6.28,4.13,9.59,5.43,5.53,2.18,16.97,2.11,20.25-4.12-2.13-.66-9.44,2.25-10.37,1.28-.13-.14-.14-3.74,0-3.88.31-.33,8.24.7,2.25-4.85ZM849.79,381.47c-5.31.07-15.96-.67-16.86,6.47l14.27,1.29c-.62-1.74-1.26-2.92-.46-4.85.87-2.08,3.36-.83,3.05-2.91ZM751.19,394.45c-.42-.5-11.29-3.65-12.41-3.82-7.89-1.24-20.54,1.38-28.07,4.23-5.48,2.08-8.19,5.66-1.02,6.73.1,7.15-5.06,12.95-3.92,20.1l22.05-9.1c-.5-9.7-12.94-5.88-12.98-14.25,7.37-1.34,20.73-4.68,27.82-2.69,1,.28.12,5.96,5.08,5.02,2.19-.41,4.59-4.86,3.44-6.22ZM703.17,397.04c-25.19-1.15-42.46,25.46-44.1,48,22.03-7.34,40.08-24.47,44.1-48ZM796.6,415.19c-1.26-8.89-12.62-10.89-20.17-10.43-2.57.15-11.65,2.09-5.18,3.99,8.29,2.43,16.9,4.61,25.35,6.45ZM582.51,592.94c51.8-14.52,55.81-82.63,51.89-127.14-2.26-.3-1.22,2.95-1.28,4.52-1.63,40.6-2.24,85.99-37.01,113.52-4.34,3.44-9.67,5.42-13.6,9.1ZM451.27,595.37c2.41-1.49,2.47-23.66,2.8-27.7.78-9.77,3.77-19.49,1.27-29.21-12.84,6.81-33.87,52.95-12.25,57.01,1.62.3,7.15.53,8.18-.1ZM657.75,548.84c-.69-.69-2.8-.89-2.33,1.67,2.78,15.25,12.3,36.38,28.29,41.13-1.85-2.72-5.42-4.79-7.56-7.35-6.1-7.26-11.21-16.48-15.12-25.1-.89-1.97-2.9-9.97-3.28-10.36Z"/>
  <path class="st0" d="M886.12,660.45c0,2.45-5.45,1.29-6.97,1.12-20.18-2.31-41.4-7.89-61.49-11.17-122.14-19.94-241.64-26.77-365.61-23.76-31.79.77-64.02,4.34-95.9,5.31-8.09.24-21.04.91-28.63-.06-1.78-.23-4.01-.9-1.93-2.59,45.96-5.33,91.99-11.08,138.21-14.27,89.51-6.17,183.73-8.58,272.34,6.6,40.93,7.02,83.06,18.51,122.75,30.38,9.11,2.72,18.02,6.08,27.24,8.44Z"/>
  <path class="st0" d="M186.75,696.75c-4.51.4-7.21-4.07-11.33-4.9-13.66-2.75-75.39,17.82-88.96,25.92-13.55,8.09-15.06,18.41-19.17,32.67.66,4.02,21.08-.44,24.76-1.12,9.87-1.83,71.69-18.63,75.25-14.93.14.15.52,3.74-.78,4l-95.22,27.8c-13.23,3.32-19.77,23.13-13.73,34.45,7.5,14.06,41.38,5.59,53.91,1.84,7.63-2.28,36.59-17.62,40.05-4.88,2.31,8.52-18.14,15.85-24.45,17.89-28.82,9.32-95.02,22.09-89.41-27.13.41-3.58,3.9-11.93,3.46-14.25-.37-1.94-5.31-4.71-4.72-7.77.73-3.8,9.91-4.22,11.6-6.88,2.13-3.36.72-9.6,1.53-13.72,2.24-11.33,11.3-38.37,23.97-40.91,4.5-.9,9.13.22,13.66-.61,27.81-5.08,54.81-19.63,84.64-17.84,7.56.45,17,.62,14.93,10.36Z"/>
  <path class="st0" d="M704.1,684.37c.42.17,6.82,4.12,7.44,4.69,11.13,10.26,3.92,27.41-7.68,33.69-7.04,3.81-7.05-.31-4.88-6.17,2.38-6.41,14.87-18.46,4.08-22.89-24.41-10.02-72.87,17.86-90.12,35.46-7.85,8.01-26.95,36-28.84,46.42-9.65,53.12,49.15,44.32,79.72,27.82,4.46-2.41,20.85-14.2,23.12-14.52,3.74-.52,1.47,2.65.42,4.33-19.47,31.38-91.5,52.08-118.56,21.7-25.53-28.66,5.79-74.61,28.58-94.82,22.3-19.78,77.51-47.75,106.71-35.72Z"/>
  <path class="st0" d="M232.16,797.97c-29.16,26.36-80.41,9.6-65.48-35,9.35-27.91,47.69-37.8,68.73-16.93,4.73-12.14,5.71-25.86,9.39-38.59,3.4-11.74,16.31-48.01,32.84-42.56,13.04,4.3-5.05,13.79-7.83,16.96-18.17,20.77-29.71,99.27-21.46,125.24,1.41,4.44,10.9,14.62,1.49,14.21-10.86-.47-16.27-14.27-17.68-23.33ZM201.99,751.56c-21.53,3.66-33.5,34.57-9.68,42.8,8.81,3.04,32.08.84,37.11-7.58,2.39-4,5.37-23.85,3.42-27.76-2.77-5.56-24.66-8.51-30.85-7.46Z"/>
  <path class="st0" d="M364.12,734.8c3.72,2.67,2.3,7.83,1.31,11.54-2.68,10.1-10.19,18.94-11.27,29.57l42.86-38.22c6.32-4.56,14.19-1.81,14.25,6.39.1,12.29-10.17,33.16-10.29,46.9-.02,1.94.93,6.69,2.41,7.67,10.56,6.99,34.15-21.16,43.54-24.03,3.23-.98,1.96,3.74,1.24,5.14-2.83,5.55-27.68,25.93-33.94,29.64-9.25,5.48-18.82,8.74-25.67-2.41-8.13-13.25-.12-31.48,1.35-45.28.15-1.38,1.69-3.57-1.37-2.66-1.84.55-10.84,8.37-13.04,10.33-7.46,6.65-20.73,24.9-27.14,28.65-3.21,1.87-4.84,1.6-8.17.24-6.98-2.85-5.87-10.17-5.35-16.36.81-9.64,9.13-31.69,13.23-41.29,2.65-6.2,10.11-10.08,16.03-5.82Z"/>
  <path class="st0" d="M928.5,737.46c.44.23,5.66,5.62,5.97,6.33,8.43,19.14-20.7,28.54-34.66,29.58-5.51.41-28.02-1.44-30.54,2.58-.4.64,3.57,3.65-1.3,4.49,3.67,4.34,2.75,11.68,8.69,15,1.96,1.09,4.14.66,5.88,1.34,1.25.49.65,2.63,2.85,2.6,32.04-.45,66.03-14.66,93.77-29.69,1.91-1.03,6.21-5.88,8.17-4.15,1.22,1.09-1.71,3.72-2.57,4.55-5.73,5.55-22.32,15.34-29.83,19.47-23.56,12.97-73.42,33.06-95.45,9.75-29.27-30.98,40.39-76.88,69.02-61.86ZM880.95,764.23c8.76,1.59,35.82-4.79,39.54-12.99.85-1.88,1.33-4.84.11-6.56-4.27-6.01-39.86,9.6-39.66,19.55Z"/>
  <path class="st0" d="M753.03,758.29c4.26-4.28,12.13-15.03,18.31-14.7,11.74.62,3.87,17.23,2.76,23.17-1.33,7.14-4.04,18.71-3.49,25.41.07.9,2.07,10.12,2.53,10.39,3,1.79,6.15-.36,9.19-.69,3.27,3.69-11.35,15.04-20.83,7.21-11.15-9.21-3.82-30.06-2.52-42.24-2.16-.5-2.63.69-3.86,1.96-8.71,8.97-34.86,39.61-47.24,39.47-10-.11-11.84-12.02-11.03-19.89.91-8.93,7.22-31.08,10.02-40.57,1.61-5.45,4.1-8.57,10.03-9.43,5.27-.76,13.28-1.38,13.4,5.73.07,4.22-12.19,27.5-14.5,34.69-.68,2.12-5.38,15.39-1.57,15.27,2.81-.09,34.35-31.28,38.82-35.76Z"/>
  <path class="st0" d="M266.23,774.92c-1.49,1.28-1.81,6.04-1.67,8.08,1.81,27.64,49.63,16.94,64.92,7.18-1.65,14.19-27.24,21.58-39.34,21.56-24.58-.03-43.41-13.15-37.92-39.8,4.83-23.45,48.48-44.67,69.58-34.39,14.92,7.27,8.61,22.62-2.79,29.81-9.08,5.73-21.06,6.66-31.7,7.25-4.41.25-18.09-2.26-21.07.31ZM316.18,745.09c-8.95-7.41-39.86,9.37-45.08,19.13,11.3.45,23.12-.24,33.73-4.54,4.24-1.72,17.54-9.47,11.35-14.59Z"/>
  <path class="st0" d="M520.23,748.66h-24c-2.9,0-22.62,7.4-23.79,9.28-.53.85-.54,4.01-.03,4.82,1.36,2.17,26.33,5.97,30.96,7.3,15.49,4.44,28.69,15.1,12.29,29.18-12.73,10.93-46.74,20.9-63.55,20.87-1.92,0-23.74-2.62-18.81-6.56,16.55-.8,33.52-3.84,48.9-10.14,5.68-2.32,25.63-12.17,25.13-18.98-8.7-8.06-46.54-5.29-50.11-16.23-5.27-16.14,12.49-24.23,25.06-28.29,10.3-3.33,44.08-10.82,37.95,8.75Z"/>
  <path class="st0" d="M804.11,810.65c-1.63.92-8.23.55-10.12-.35-4.88-2.33-5.39-12.08-5.02-16.72,1.4-17.41,8.61-36.96,10.09-54.77,17.85-7.34,12.52,13.51,12.45,24.12,8.95-8.72,18.18-19.56,30.04-24.45,5.66-2.34,27.03-8.08,26.41,2.93-.52,9.3-12.26,5.08-18.74,6.04-14.89,2.22-37.99,25.88-41.36,40.38-1.29,5.53.31,20.52-3.76,22.83Z"/>
  <path class="st0" d="M493.51,233.06c.25.33,4.52,1.17,2.06,3.06-.91.71-12.78-.83-14.79-1.42-4.59-1.33-7.85-5.41-12.45-6.35l2.68,5.72c-5.18,2.6-4.86,7.81-11.06,8.61-9.65,1.24-18.94-4.46-24.72-11.74-19.21-24.2,16.14-17.41,27.9-9.1l-6.47-15.56c7.98-.45,19.3,1,25.35,6.43,6.79,6.09,6.1,13.38,11.5,20.34Z"/>
  <path class="st0" d="M503.35,162.17c4.32,8.08-4.15,43.59-10.35,47.38-6.92,4.22-19.77-7.64-19.4-15.38.83-17.62,12.85-29.14,29.75-32Z"/>
  <path class="st0" d="M435.89,755.14c-3.92-4.08,11.97-14.06,12.76-19.1.96-6.12-11.32-11.16-6.6-22.09,5.69-13.17,33.14-4.32,23.35,15.58-2.24,4.56-25.52,29.77-29.52,25.61Z"/>
  <path class="st0" d="M765.46,163.46c5.11-5.13,8.47-12.39,15.58-14.9,10.48-3.69,34.93-1,20.09,11.01-11.37,9.2-22.67,9.02-35.67,3.89Z"/>
  <path class="st0" d="M316.51,865.44v6.48c-5.02-2.63-10.09-2.68-15.56-3.88l-.02,12.98c7.05.96,15.22-3.93,12.98,6.47-4.88-1.74-6.78-5.44-12.97-3.89-2.2,18.1,4.02,15.75,18.16,11.69.32.32-.96,6.48-1.29,6.48h-28.55c-.13,0-.09-2.49,0-2.58.19-.2,5.19-.16,5.19-1.96v-29.19c0-.26-4.72.64-2.6-2.6h24.65Z"/>
  <path class="st0" d="M468.32,873.23c2.5,2.14-2.44,2.64-2.61,3.43-.27,1.19-.35,8.32.69,8.26,5.2-2.49,9.64-.83,14.9-.02-.32-2.58.56-5.85.03-8.24-.18-.78-5.11-1.29-2.61-3.43.64-.55,8.39.36,10.37,0-2.74,9.27-3.82,20.09,1.3,28.52h-12.97c-.24-2.2,2.92-1.11,3.73-3.38.98-2.78-.31-7.71.16-10.88l-14.83-.02c-1.22.18-1.08,9.51-.59,10.9.81,2.28,3.97,1.18,3.73,3.38h-12.97c.65-2.53,3.63-1.34,4-4.49.41-3.5.47-14.95-.14-18.17-.48-2.52-2.91-3.29-2.56-5.86,1.98.37,9.73-.55,10.37,0Z"/>
  <path class="st0" d="M658.41,873.23c1.58.44,5.76,6.09,5.56,8.23-.43,4.75-5.94,5.7-6.2,6.08-.47.68,3.64,7.89,4.62,8.96,2.19,2.36,5.85,2.71,7.04,5.27-10.46,4.17-14.55-10.76-20.09-11.69-3.22-.54-2.2,5.88-2.07,7.26.19,2.06,5.04,2.57,2.7,4.43-.41.32-9.97.34-10.37,0-1.25-1.08.34-3.56,2.59-2.59v-22.71c0-1.22-4.66-1.49-3.89-3.24,5.44.97,15.39-1.32,20.11,0ZM647.39,887.49c14.44.59,14.28-13.38-.01-11.68v11.68Z"/>
  <path class="st0" d="M561.76,435.95c-1.63-9.82,7.03-29.28,18.9-22.13,12.82,7.71-10.58,22.45-18.9,22.13Z"/>
  <path class="st0" d="M700.58,873.23v5.18c-8.23-3.88-16.13-5.61-14.28,6.5l11.67-1.3v6.48c-.94,1.05-14.34-9.83-11.69,7.05,6.96,2.73,12.24-.31,18.18-3.14.69.7-2.21,7.78-3.24,7.78h-24c-.77-1.76,3.89-2.02,3.89-3.24v-22.06c0-1.22-4.66-1.49-3.89-3.24h23.36Z"/>
  <path class="st0" d="M524.12,873.23v5.18c-8.23-3.88-16.13-5.61-14.28,6.5l10.38-1.31c3.58,9.84-3.98,4.53-10.38,5.19v9.1c3.53-.58,8.95.83,12.07.02,1.82-.47,1.39-4.86,4.8-3.91.44.52-.9,7.78-1.29,7.78h-24.65c-.77-1.76,3.89-2.02,3.89-3.24v-22.06c0-.55-2.74-1.89-2.6-3.24h22.06Z"/>
  <path class="st0" d="M734.32,887.5c-.93-4.22,5.61-3.81,8.38-3.95,21.75-1.14,52.68-1.31,74.03,1.37,2.36.3,2.11-.5,1.94,2.58h-84.34Z"/>
  <path class="st0" d="M608.45,873.23c-.12,2.95-2.29,3.69-2.67,7.07-.35,3.07.58,11.2,1.71,14.01,2.84,7.06,13.8,6.42,15.17-2.35.91-5.86,1.63-15.78-3.81-18.72,2.8.53,13.19-1.87,9.52,2.54-3.19,3.83-1.43,12.53-3.39,18.49-3.67,11.15-22.62,11.57-24.29-3.53-.65-5.9,1.75-10.77-1.73-14.97-3.67-4.41,6.71-2,9.51-2.54Z"/>
  <path class="st0" d="M345.05,871.93c3.44,10.43,7.03,22.89,15.58,29.83h-12.97c.82-1.68,1.2-8.58-.81-9.15-7.08-2.02-16.07.44-10.88,9.15h-9.08c7.37-6.88,8.72-19.56,13.73-27.13,1.07-1.62,2.17-3.11,4.43-2.7ZM345.06,890.09c-1.78-12.68-5.39-11.37-7.77,0h7.77Z"/>
  <path class="st0" d="M582.51,881.01c-.93-1.05,2.22-5.42-7.15-5.31-19.05.23-11.78,29.45,6.29,23.26,2.59-.89,2.34-5.65,6.04-4.97-1.86,12.9-24.74,9.74-28.85-.34-5.84-14.32,11.17-25.47,23.66-19.77,8.22,3.75,1.25,8.52.01,7.12Z"/>
  <path class="st0" d="M185.46,887.5l1.92-2.6c23.71-.54,47.7-2.6,71.44-1.36,2.77.15,9.31-.27,8.38,3.95h-81.74Z"/>
  <path class="st0" d="M429.4,877.77c-.86-2.89-6.08-1.59-8.14-.59-.65.32-1.64,4.78-3.54,2.53-.22-.26,1.13-6.29,2.09-6.56,1.24-.34,24.41-.34,25.65,0,.97.27,2.31,6.29,2.09,6.56-2.08,2.52-2.69-2.45-3.43-2.61-.97-.21-9.54-.45-9.54.02v20.11c0,.66,3.87,2.94,3.89,4.53l-12.32.02c-1.56-1.74,3.24-1.81,3.24-4.55,0-4.38.9-16.43,0-19.46Z"/>
  <path class="st0" d="M390.47,873.23c.36.23,2.12,5.53-.66,6.48-1.06.36-.05-1.85-1.61-2.51s-8.12-1.98-8.12.56v21.41c0,.21,4.99.7,3.24,2.6l-12.32-.02c-.14-2.16,3.89-2.35,3.89-2.58v-23.36c-1.73.79-5.98-.13-7.02.29-2.48,1-.92,4.62-4.65,3.59v-6.48c4.32.92,25.34-1.23,27.24,0Z"/>
  <path class="st0" d="M573.41,134.93c.48-.4-1.06-3.11,1.3-2.59-.04,4.76,1.43,5.33-3.23,5.23-8.46-.19-14.85-4.44-16.21-13.02,6.66-3.88,17.32,11.07,18.15,10.38Z"/>
  <path class="st0" d="M718.12,893.99c4.38-1.04,4.79,9.49-1.3,7.77-3.64-1.03-1.29-7.15,1.3-7.77Z"/>
  <rect class="st0" x="712.27" y="376.28" width="5.18" height="2.58"/>
</svg>